<svg id="Layer_1" data-name="Layer 1" xmlns="http://www.w3.org/2000/svg" viewBox="0 0 564 308"><defs><style>.cls-1{fill:#fff;}.cls-2{fill:#58c09c;}</style></defs><title>bigu-horizontal</title><path id="_Path_" data-name="&lt;Path&gt;" class="cls-1" d="M454.15,169.7L454,213.5h0.1a36.19,36.19,0,0,1-36.2,36.2h-0.6a34.43,34.43,0,0,1-25.5-10.6,8.12,8.12,0,0,1,1.8-13c3.6-2,6.8-1.5,9.6,1.3a18.89,18.89,0,0,0,14.1,5.9h0.6a20,20,0,0,0,19.9-19.9h-0.1V169.6Z"/><path id="_Compound_Path_" data-name="&lt;Compound Path&gt;" class="cls-1" d="M308.35,124.2h0a36.62,36.62,0,0,0-36.6,36.6v16a36.62,36.62,0,0,0,36.6,36.6h0a36.62,36.62,0,0,0,36.6-36.6v-16A36.55,36.55,0,0,0,308.35,124.2Zm20.3,52.6a20.3,20.3,0,0,1-40.6,0v-16a20.3,20.3,0,0,1,40.6,0v16Z"/><path id="_Path_2" data-name="&lt;Path&gt;" class="cls-1" d="M279.95,169.6h0a8.24,8.24,0,0,1-8.2-8.2V101.9a8.24,8.24,0,0,1,8.2-8.2h0a8.24,8.24,0,0,1,8.2,8.2v59.5A8.24,8.24,0,0,1,279.95,169.6Z"/><path id="_Compound_Path_2" data-name="&lt;Compound Path&gt;" class="cls-1" d="M417.55,213.4h0a36.62,36.62,0,0,0,36.6-36.6v-16a36.62,36.62,0,0,0-36.6-36.6h0a36.62,36.62,0,0,0-36.6,36.6v16A36.62,36.62,0,0,0,417.55,213.4Zm-20.2-52.7a20.3,20.3,0,0,1,40.6,0v16a20.3,20.3,0,0,1-40.6,0v-16Z"/><path id="_Path_3" data-name="&lt;Path&gt;" class="cls-1" d="M519.45,132.6v43.5c0,10.8-8.1,20.2-18.9,20.9a20.24,20.24,0,0,1-21.6-20.2V132.6a8.24,8.24,0,0,0-8.2-8.2h0a8.24,8.24,0,0,0-8.2,8.2v44.2a36.62,36.62,0,0,0,36.6,36.6h0a36.62,36.62,0,0,0,36.6-36.6V132.6a8.24,8.24,0,0,0-8.2-8.2h0A8.15,8.15,0,0,0,519.45,132.6Z"/><path id="_Path_4" data-name="&lt;Path&gt;" class="cls-1" d="M356.75,211a8,8,0,0,1-2.4-5.8V132.6a7.85,7.85,0,0,1,2.4-5.8,8,8,0,0,1,5.8-2.4,8.18,8.18,0,0,1,5.8,2.4,7.85,7.85,0,0,1,2.4,5.8v72.6a8.19,8.19,0,0,1-8.2,8.2A8,8,0,0,1,356.75,211Z"/><circle class="cls-2" cx="132.26" cy="154" r="104.01"/><path id="_Path_5" data-name="&lt;Path&gt;" class="cls-1" d="M195.34,177.06c-1.27-6-2.61-12-3.88-18.11a5.49,5.49,0,0,0-5.77-4.67,5.35,5.35,0,0,0-2.21.16c-6,1.27-12,2.61-18.11,3.88-8.23,1.74-4.75,14.32,3.48,12.58,0.95-.24,1.82-0.4,2.77-0.63-6.33,14.47-32.35,21.91-43.5,9.73-4.9-5.3-5.77-14.87,1.42-18.19,2.29-1,5-1.27,7.12.32,3.24,2.29,3.4,7.51,3.16,11.47-0.4,8.38,12.65,8.38,13.05,0,0.63-11.78-4.9-24.2-18-25.39a22.19,22.19,0,0,0-22.86,15.42c-3.4,11.23,2.37,23.89,12.1,30a34.56,34.56,0,0,0,13,4.67c-4,8.7-11.86,15-22.46,13.45C102.72,209.89,95.6,199,95.44,187.5c-0.32-19.69-.08-39.47-0.16-59.16,0-7.67-.08-15.34-0.08-22.94l11.15-11.15c5.93-5.93-3.24-15.19-9.25-9.25l-8.46,8.46L80.18,85c-5.93-5.93-15.19,3.24-9.25,9.25L82.08,105.4l0.24,64.78c0,8.94-.87,18.9,1.34,27.6a35.74,35.74,0,0,0,30.93,27c17.64,1.74,31.48-10.52,36.46-26.57a62.31,62.31,0,0,0,6.88-1.5c9.89-3,19.3-9.25,24.28-18.27,0.16,0.71.32,1.5,0.47,2.21C184.5,188.69,197.08,185.21,195.34,177.06Z"/></svg>