<svg id="Layer_1" data-name="Layer 1" xmlns="http://www.w3.org/2000/svg" viewBox="0 0 1000 1000"><defs><style>.cls-1{fill:#fff;}.cls-2{fill:#c42127;}.cls-3{fill:#58a145;}.cls-4{fill:#92c83e;}</style></defs><title>redbake</title><rect class="cls-1" width="1000" height="1000"/><path class="cls-2" d="M262.67,661.54c-9.31-5.24-19.19-15.12-27.91-29.66s-29.08-55.24-29.08-55.24c12.21-.58,71.53-21.51,57.57-69.19s-100-13.38-100-13.38S133,597,124.85,623.16s23.26,26.17,23.26,26.17,19.19-64.54,19.19-68,11-.58,11-.58c7,.58,15.7,20.93,21.52,51.75s32,36.63,45.36,39S272,666.78,262.67,661.54ZM174.28,561l12.79-44.78s56.41-15.12,56.41,10.47S181.83,563.25,174.28,561Z"/><path class="cls-2" d="M325.66,619.44c-5.51-8.19-23.38,16.81-40.26,14.81s-6.35-20-6.35-20c36-10.49,56.61-40.52,41.09-55s-46.81-3.16-68.37,34.45,10.78,56.8,36.55,58.38S331.19,627.59,325.66,619.44Zm-16.3-52.33s-4.47,19.2-24.72,23.14c0,0-1.36-21.82,24.72-23.14Z"/><path class="cls-2" d="M875.47,618.73c-5.47-8.07-23.16,16.65-39.84,14.63s-6.28-19.8-6.28-19.8c35.57-10.38,56-40.09,40.65-54.4s-46.31-3.12-67.64,34.09S813,649.45,838.52,651,880.92,626.79,875.47,618.73ZM859.34,567s-4.42,19-24.46,22.89c0,0-1.3-21.61,24.45-22.9Z"/><path class="cls-2" d="M449.78,509.25c4.66-10-6.35-21-14.65-24.63-9.51-4.12-13.68,22-19.07,42.07a190.64,190.64,0,0,1-15.53,38.25c-6-12.31-28.62-21.3-56.58,9s-23.29,49.31-23.29,49.31,2,24.29,26.29,27.62,32.33-11.69,32.33-11.69-2,13.65,24.63,12,41.6-24.29,38.27-32.28-14.31,5.33-27,10.65-9-7.32-6.32-17.64S445.12,519.25,449.78,509.25Zm-97.5,120.28s-2.66-15,12.65-34,28-19.63,28-19.63S398.21,612.54,352.28,629.53Z"/><path class="cls-2" d="M701.88,578.75c4.66-10-.74-14.92-10.62-18-7.17-2.25-9.89,8-12.26,1.16l-.74-.9c-9-8.45-29.15-17.32-57.11,13s-23.3,49.24-23.3,49.24,2,24.29,26.29,27.62,32.28-11.65,32.28-11.65-2,13.65,24.63,12,41.6-24.29,38.28-32.28-14.32,5.33-27,10.65-9-7.32-6.33-17.64S697.22,588.71,701.88,578.75Zm-71.23,47.72s-2.5-14.06,11.87-31.87,24.08-15.18,24.08-15.18,7.18,31.1-36,47Z"/><path class="cls-2" d="M558,551.46s41.06-18.13,27.1-52-87.4-8.47-95.66-4.66-3.59,8.89,0,14.6-.39,11.34-.39,11.34L447.83,631c-9.85,22.88,14.91,21,14.91,21,42.11.21,127-23.28,136.08-63.27S558,551.46,558,551.46ZM514,522.16s43.65-20.29,40.58-2.46-50.23,33.19-50.23,33.19ZM567.4,587c-5.23,39-87,44.57-87,44.57l15.67-47.64s76.57-36,71.34,3.08Z"/><path class="cls-3" d="M475.37,401.88c-40.66-1.82-107.16-13.63-107.49-13.69l1.3-6.8c.32.07,67.83,12.07,109.34,13.69,69,2.71,109.84-8.86,131.9-19l2.9,6.28c-18.27,8.43-40.73,14.29-66.74,17.4A435.48,435.48,0,0,1,478.15,402l-2.78-.11"/><path class="cls-4" d="M636.8,394.07c-18.37,7.27-30.45.83-35.2-11.16s-.35-25,18-32.24,43.06,7.79,42.9,8.12-7.36,28-25.72,35.28"/><path class="cls-3" d="M662.52,358.79h0l-61.79,21.46-.87,3.55c4.75,12,18.57,17.58,36.94,10.31s25.59-35,25.72-35.28"/><path class="cls-4" d="M590.15,364.42c-2.52,16.06-12.7,24.18-23.86,25.33s-19.09-5.13-16.58-21.18,24.74-32.26,24.91-32.07,18,11.87,15.52,27.92"/><path class="cls-3" d="M574.62,336.5h0l-8.34,53.25h0c11.16-1.15,21.34-9.27,23.86-25.33s-15.35-27.74-15.52-27.92"/><path class="cls-4" d="M537.71,369.91c-5.16,18.24-17.44,26.3-29.74,26.15S488,387.6,493.19,369.36s31.74-34,31.9-33.81,17.78,16.11,12.61,34.35"/><path class="cls-3" d="M525.1,335.55h0L508,396h0c12.3.15,24.58-7.91,29.74-26.15s-12.44-34.1-12.62-34.34"/><path class="cls-4" d="M477.28,367.5c-7.43,19.86-21.36,27.7-34.43,26.4s-20.34-11.27-12.91-31.12,37.42-35,37.57-34.74,17.22,19.61,9.78,39.46"/><path class="cls-3" d="M467.53,328h0l-24.65,65.85h0c13.08,1.31,27-6.54,34.44-26.4s-9.64-39.18-9.78-39.46"/><path class="cls-4" d="M596.28,414.13c-7-14.65-19.09-19.52-30.11-17.42s-16.89,10.39-9.89,25,33,23.81,33.07,23.58,13.93-16.54,6.93-31.2"/><path class="cls-3" d="M589.38,445.32h0L566.12,396.7h0c11-2.11,23.11,2.77,30.11,17.42s-6.74,31-6.86,31.2"/><path class="cls-4" d="M537.86,428.54c-5-18.27-17.25-26.42-29.54-26.36s-20,8.3-15,26.58,31.5,34.27,31.66,34,17.89-16,12.87-34.26"/><path class="cls-3" d="M525,462.79h0l-16.71-60.63h0c12.29-.07,24.51,8.08,29.54,26.36s-12.71,34-12.87,34.26"/><path class="cls-4" d="M475.44,429.05c-5.64-20.44-18.81-29.5-32-29.36s-21.27,9.41-15.63,29.84,34.14,38.21,34.32,37.94,18.89-18,13.26-38.43"/><path class="cls-3" d="M462.18,467.48h0l-18.69-67.79h0c13.14-.14,26.31,8.92,32,29.36s-13.15,38.19-13.31,38.43"/><path class="cls-2" d="M783.28,536.6c-15.36,6-31.81,37.67-31.81,37.67-4.57-22.1,18-74.51,24.46-88.85.57-2.29-1.85-3-1.85-3-1.49-.74-15.17.12-15.17.12-3.4.08-6.3,2.61-8.27,4.92-29.07,39.61-47.08,147.15-47.08,147.15-.89,6.21-2.66,16.86,9.88,16.93S738,615.89,738,615.89c21.56,42.2,47.72,34.34,61.06,24.56,0,0,5.12-4,1.64-11.6,0,0-2.92-6.16-9.54-4.63-27.7,14.24-29.09-26-29.09-26s-1.8-22.86,53.26-59C820,536.19,798.67,530.61,783.28,536.6Z"/></svg>