<svg id="Layer_1" data-name="Layer 1" xmlns="http://www.w3.org/2000/svg" viewBox="0 0 300 300"><defs><style>.cls-1{fill:#fff;}.cls-2{fill:#cd3539;}</style></defs><title>zen</title><rect class="cls-1" width="300" height="300"/><polygon class="cls-2" points="56.82 109.02 116.56 109.02 116.56 118.41 76.36 148.81 116.56 148.81 116.56 158.24 56.82 158.24 56.82 149.16 98.53 117.66 56.82 117.66 56.82 109.02"/><polygon class="cls-2" points="121.44 109.02 121.44 158.24 179.3 158.24 179.3 149.16 133.47 149.16 133.47 137.95 166.53 137.95 166.53 127.05 133.47 127.05 133.47 119.17 179.3 119.17 179.3 109.02 121.44 109.02"/><polygon class="cls-2" points="183.43 158.24 183.43 109.02 196.96 109.02 229.64 142.46 229.64 109.02 242.79 109.02 242.79 158.24 230.39 158.24 197.33 125.18 197.33 158.24 183.43 158.24"/><path d="M69.76,184a11,11,0,0,1-4.56.82c-4.86,0-8.53-3.07-8.53-8.73,0-5.4,3.66-9.06,9-9.06a9.24,9.24,0,0,1,4.1.77l-0.54,1.82a8.12,8.12,0,0,0-3.48-.72c-4,0-6.73,2.59-6.73,7.12,0,4.22,2.43,6.94,6.63,6.94a8.91,8.91,0,0,0,3.64-.72Z"/><path d="M83.4,178.28c0,4.58-3.18,6.58-6.17,6.58-3.35,0-5.94-2.46-5.94-6.37,0-4.15,2.71-6.58,6.15-6.58S83.4,174.49,83.4,178.28Zm-9.83.13c0,2.71,1.56,4.76,3.76,4.76s3.76-2,3.76-4.81c0-2.1-1-4.76-3.71-4.76S73.57,176.05,73.57,178.41Z"/><path d="M86.24,175.54c0-1.28,0-2.33-.1-3.35h2l0.1,2h0.08a4.27,4.27,0,0,1,3.89-2.28,3.66,3.66,0,0,1,3.51,2.48h0.05a5.1,5.1,0,0,1,1.38-1.61,4.23,4.23,0,0,1,2.74-.87c1.64,0,4.07,1.08,4.07,5.38v7.3h-2.2v-7c0-2.38-.87-3.82-2.69-3.82a2.92,2.92,0,0,0-2.66,2,3.71,3.71,0,0,0-.18,1.13v7.66H94v-7.42c0-2-.87-3.41-2.59-3.41a3.36,3.36,0,0,0-3,3.35v7.48h-2.2v-9Z"/><path d="M110.1,168.7a1.4,1.4,0,0,1-2.79,0,1.37,1.37,0,0,1,1.41-1.41A1.34,1.34,0,0,1,110.1,168.7Zm-2.51,15.88V172.19h2.25v12.39h-2.25Z"/><path d="M124.29,166.4v15c0,1.1,0,2.36.1,3.2h-2l-0.1-2.15h-0.05a4.58,4.58,0,0,1-4.22,2.43c-3,0-5.3-2.53-5.3-6.3,0-4.12,2.53-6.66,5.56-6.66A4.14,4.14,0,0,1,122,173.8H122v-7.4h2.25ZM122,177.23a4,4,0,0,0-.1-0.95,3.31,3.31,0,0,0-3.25-2.61c-2.33,0-3.71,2-3.71,4.79,0,2.51,1.23,4.58,3.66,4.58a3.39,3.39,0,0,0,3.3-2.69,3.92,3.92,0,0,0,.1-1v-2.15Z"/><path d="M134.88,184.58L134.71,183h-0.08a4.62,4.62,0,0,1-3.79,1.84A3.53,3.53,0,0,1,127,181.3c0-3,2.66-4.63,7.45-4.61v-0.26a2.55,2.55,0,0,0-2.82-2.87,6.17,6.17,0,0,0-3.23.92L127.95,173a7.69,7.69,0,0,1,4.07-1.1c3.79,0,4.71,2.59,4.71,5.07v4.63a17.48,17.48,0,0,0,.2,3h-2Zm-0.33-6.32c-2.46-.05-5.25.38-5.25,2.79a2,2,0,0,0,2.13,2.15,3.08,3.08,0,0,0,3-2.07,2.34,2.34,0,0,0,.13-0.72v-2.15Z"/><path d="M149.4,167.32h2.23v11.55c0,4.58-2.25,6-5.22,6a7.21,7.21,0,0,1-2.38-.41l0.33-1.82a5.3,5.3,0,0,0,1.87.33c2,0,3.18-.9,3.18-4.28V167.32Z"/><path d="M162.12,184.58L161.94,183h-0.08a4.62,4.62,0,0,1-3.79,1.84,3.53,3.53,0,0,1-3.79-3.56c0-3,2.66-4.63,7.45-4.61v-0.26a2.55,2.55,0,0,0-2.82-2.87,6.18,6.18,0,0,0-3.23.92L155.18,173a7.69,7.69,0,0,1,4.07-1.1c3.79,0,4.71,2.59,4.71,5.07v4.63a17.47,17.47,0,0,0,.21,3h-2Zm-0.33-6.32c-2.46-.05-5.25.38-5.25,2.79a2,2,0,0,0,2.13,2.15,3.08,3.08,0,0,0,3-2.07,2.34,2.34,0,0,0,.13-0.72v-2.15Z"/><path d="M167.6,176.23c0-1.59-.05-2.87-0.1-4h2l0.1,2.13h0.05a4.87,4.87,0,0,1,4.4-2.41c3,0,5.25,2.53,5.25,6.3,0,4.46-2.71,6.66-5.63,6.66a4.34,4.34,0,0,1-3.81-1.95h-0.05v6.73H167.6V176.23Zm2.23,3.3a5.12,5.12,0,0,0,.1.92,3.48,3.48,0,0,0,3.38,2.64c2.38,0,3.76-1.95,3.76-4.79,0-2.48-1.31-4.61-3.69-4.61a3.59,3.59,0,0,0-3.41,2.79,3.63,3.63,0,0,0-.15.92v2.13Z"/><path d="M193.38,178.28c0,4.58-3.18,6.58-6.17,6.58-3.35,0-5.94-2.46-5.94-6.37,0-4.15,2.71-6.58,6.15-6.58S193.38,174.49,193.38,178.28Zm-9.83.13c0,2.71,1.56,4.76,3.76,4.76s3.76-2,3.76-4.81c0-2.1-1-4.76-3.71-4.76S183.55,176.05,183.55,178.41Z"/><path d="M196.22,175.54c0-1.28,0-2.33-.1-3.35h2l0.13,2h0.05a4.56,4.56,0,0,1,4.1-2.33c1.72,0,4.38,1,4.38,5.27v7.4h-2.25v-7.14c0-2-.74-3.66-2.87-3.66a3.2,3.2,0,0,0-3,2.3,3.24,3.24,0,0,0-.15,1v7.45h-2.25v-9Z"/><path d="M211.68,178.79c0.05,3,2,4.3,4.25,4.3a8.15,8.15,0,0,0,3.43-.64l0.38,1.61a10,10,0,0,1-4.12.77c-3.81,0-6.09-2.51-6.09-6.25s2.2-6.68,5.81-6.68c4,0,5.12,3.56,5.12,5.84a8.57,8.57,0,0,1-.08,1h-8.71Zm6.61-1.61c0-1.43-.59-3.66-3.12-3.66-2.28,0-3.28,2.1-3.46,3.66h6.58Z"/><path d="M222.95,182.27a5.9,5.9,0,0,0,3,.9c1.64,0,2.41-.82,2.41-1.84s-0.64-1.66-2.3-2.28c-2.23-.79-3.28-2-3.28-3.51,0-2,1.61-3.64,4.28-3.64a6.19,6.19,0,0,1,3,.77l-0.56,1.64a4.83,4.83,0,0,0-2.54-.72,1.81,1.81,0,0,0-2.07,1.69c0,1,.74,1.48,2.36,2.1,2.15,0.82,3.25,1.89,3.25,3.74,0,2.18-1.69,3.71-4.63,3.71a7.07,7.07,0,0,1-3.48-.84Z"/><path d="M240.25,184.58L240.07,183H240a4.62,4.62,0,0,1-3.79,1.84,3.53,3.53,0,0,1-3.79-3.56c0-3,2.66-4.63,7.45-4.61v-0.26a2.56,2.56,0,0,0-2.82-2.87,6.17,6.17,0,0,0-3.23.92L233.32,173a7.68,7.68,0,0,1,4.07-1.1c3.79,0,4.71,2.59,4.71,5.07v4.63a17.48,17.48,0,0,0,.2,3h-2Zm-0.33-6.32c-2.46-.05-5.25.38-5.25,2.79a2,2,0,0,0,2.13,2.15,3.08,3.08,0,0,0,3-2.07,2.34,2.34,0,0,0,.13-0.72v-2.15Z"/></svg>